<?xml version="1.0" encoding="utf-8"?>
<!-- Generator: Adobe Illustrator 25.3.1, SVG Export Plug-In . SVG Version: 6.00 Build 0)  -->
<svg version="1.1" id="Camada_1" xmlns="http://www.w3.org/2000/svg" xmlns:xlink="http://www.w3.org/1999/xlink" x="0px" y="0px"
	 viewBox="0 0 1920 430" style="enable-background:new 0 0 1920 430;" xml:space="preserve">
<style type="text/css">
	.st0{fill:#F8FAF9;}
</style>
<g>
	<path class="st0" d="M101.76,152.53H85.25v-12.39c23.95,0,46.65-23.53,56.56-45h5.78v42.11h33.85v20.64
		c-11.56-4.13-22.29-5.37-33.85-5.37V254.1c0,19.82,6.19,29.31,15.28,29.31c9.08,0,19.41-9.49,23.95-27.66l8.26,9.08
		c-10.32,30.14-28.07,45-49.54,45c-28.49,0-43.76-20.23-43.76-55.74V152.53z"/>
	<path class="st0" d="M274.34,301.99v5.78h-78.45v-5.78c8.26,0,16.51-9.08,16.51-23.53V93.49c0-14.45-8.26-23.53-16.51-23.53v-5.78
		c19.41,0,41.29-4.95,56.56-17.75h5.78v114.36c9.5-16.51,26.01-27.66,47.07-27.66c33.44,0,47.07,26.42,47.07,54.09v91.24
		c0,14.45,8.26,23.53,16.1,23.53v5.78h-78.44v-5.78c7.85,0,16.1-9.08,16.1-23.53v-91.24c0-13.62-2.48-28.9-19.41-28.9
		c-10.32,0-20.64,8.26-28.49,22.71v97.44C258.23,292.91,266.49,301.99,274.34,301.99z"/>
	<path class="st0" d="M458.06,283.82c20.64,0,43.35-19.41,52.43-39.22l8.67,9.08c-13.21,29.73-40.05,55.74-71.84,55.74
		c-47.07,0-75.97-44.18-75.97-88.35c0-48.72,29.73-88.77,78.03-88.77c42.53,0,66.89,28.9,68.12,75.14l-98.67,35.92
		C423.38,272.26,440.72,283.82,458.06,283.82z M417.18,221.07c0,2.06,0,4.54,0,7.02l54.5-19.82c0-42.53-5.78-61.1-22.3-61.1
		C428.33,147.17,417.18,176.06,417.18,221.07z"/>
	<path class="st0" d="M679.76,93.9c0,24.36-24.77,40.05-47.89,43.76c24.36,9.91,38.4,31.38,38.4,55.74
		c0,33.85-26.42,61.52-69.36,61.52c-26.84,0-37.16,7.85-37.16,18.58c0,8.26,8.26,11.97,18.17,11.97c11.56,0,33.03-4.13,44.59-4.13
		c34.27,0,48.31,18.58,48.31,37.57c0,32.61-35.92,46.24-71.01,46.24c-32.2,0-63.58-11.56-63.58-29.73c0-6.19,4.13-11.56,11.15-14.86
		c8.67,21.05,32.62,29.73,56.56,29.73c11.56,0,37.98-2.48,37.98-17.75c0-7.43-7.84-13.62-16.51-13.62
		c-13.21,0-34.27,4.13-47.48,4.13c-31.38,0-47.89-17.75-47.89-37.16c0-15.28,11.15-30.97,33.86-37.57
		c-23.12-9.91-36.33-30.97-36.33-54.91c0-33.44,26.42-61.1,69.36-61.1c17.34,0,38.4-4.54,47.07-11.56
		c-11.97-2.89-20.64-12.39-20.64-26.01s11.97-26.42,26.42-26.42C667.79,68.31,679.34,79.87,679.76,93.9z M577.37,193.41
		c0,25.6,10.73,46.65,23.53,46.65c12.8,0,23.12-21.06,23.12-46.65c0-25.6-10.32-46.24-23.12-46.24
		C588.1,147.17,577.37,167.81,577.37,193.41z"/>
	<path class="st0" d="M820.95,278.46c0,14.45,8.26,23.53,16.1,23.53v5.78h-57.8l-4.54-21.06c-11.97,13.63-28.9,21.47-46.24,21.47
		c-26.01,0-48.72-16.93-48.72-44.59c0-51.61,68.53-42.52,94.96-70.19c0-35.09-13.21-46.24-31.38-46.24
		c-7.43,0-14.87,3.72-18.99,10.32c6.19,4.95,10.32,12.39,10.32,20.64c0,17.34-11.97,26.42-24.36,26.42
		c-11.97,0-24.36-8.67-24.36-26.42c0-29.31,30.14-45.83,61.52-45.83c35.51,0,73.49,19.82,73.49,62.34V278.46z M774.71,207.44
		c-16.51,16.93-48.72,25.6-48.72,53.67c0,18.17,11.15,22.71,21.06,22.71s21.05-6.61,27.66-17.75V207.44z"/>
	<path class="st0" d="M927.88,301.99v5.78h-78.45v-5.78c8.26,0,16.51-9.08,16.51-23.53V93.49c0-14.45-8.26-23.53-16.51-23.53v-5.78
		c19.41,0,41.29-4.95,56.56-17.75h5.78v232.03C911.78,292.91,920.03,301.99,927.88,301.99z"/>
	<path class="st0" d="M1018.7,301.99v5.78h-78.44v-5.78c8.26,0,16.51-9.08,16.51-23.53V93.49c0-14.45-8.26-23.53-16.51-23.53v-5.78
		c19.41,0,41.29-4.95,56.56-17.75h5.78v232.03C1002.6,292.91,1010.85,301.99,1018.7,301.99z"/>
	<path class="st0" d="M1107.46,283.82c20.64,0,43.35-19.41,52.43-39.22l8.67,9.08c-13.21,29.73-40.05,55.74-71.84,55.74
		c-47.07,0-75.97-44.18-75.97-88.35c0-48.72,29.73-88.77,78.03-88.77c42.53,0,66.89,28.9,68.12,75.14l-98.68,35.92
		C1072.78,272.26,1090.12,283.82,1107.46,283.82z M1066.59,221.07c0,2.06,0,4.54,0,7.02l54.5-19.82c0-42.53-5.78-61.1-22.3-61.1
		C1077.74,147.17,1066.59,176.06,1066.59,221.07z"/>
	<path class="st0" d="M1251.96,301.99v5.78h-78.44v-5.78c8.26,0,16.51-9.08,16.51-23.53v-97.02c0-14.45-8.26-23.53-16.51-23.53
		v-5.37c19.41,0,41.29-4.95,56.56-18.17h5.78v16.93c7.84-13.21,21.88-19.4,35.51-19.4c26.01,0,44.18,20.23,44.18,46.24
		c0,17.75-12.38,26.42-24.36,26.42c-11.97,0-24.36-9.08-24.36-26.42c0-8.26,4.13-15.69,10.32-20.64
		c-2.48-6.61-7.02-10.32-12.39-10.32c-14.86,0-25.6,25.18-28.9,36.74v94.55C1235.86,292.91,1244.11,301.99,1251.96,301.99z"/>
	<path class="st0" d="M1339.89,163.68c-5.78-14.86-19.82-23.95-27.66-23.95v-5.37h84.64v5.37c-8.26,0-17.34,9.08-11.56,23.95
		l35.51,92.07l35.09-92.07c4.54-11.97-0.82-23.95-12.8-23.95v-5.37h54.91v5.37c-11.97,0-23.54,13.21-27.25,23.95l-56.15,146.98
		c-4.54,12.8-10.32,29.31-16.93,42.53c-7.85,16.1-18.99,30.14-39.22,30.14c-21.06,0-41.7-18.58-41.7-40.87
		c0-15.69,12.38-23.95,24.36-23.95c11.97,0,24.36,8.26,24.36,23.95c0,8.67-4.13,14.86-9.91,19.41c1.24,4.54,4.13,6.19,7.43,6.19
		c12.8,0,18.99-13.62,23.12-22.71c5.78-11.97,10.73-26.84,14.86-37.57h-5.78L1339.89,163.68z"/>
	<path class="st0" d="M1522.58,278.04c0,16.51-13.21,29.73-29.73,29.73c-16.1,0-29.31-13.21-29.31-29.73
		c0-16.1,13.21-29.31,29.31-29.31C1509.37,248.73,1522.58,261.94,1522.58,278.04z"/>
	<path class="st0" d="M1643.26,204.55c-11.97,0-23.95-9.08-23.95-26.42c0-8.26,3.72-15.69,9.91-20.64
		c-4.13-6.61-9.91-10.32-17.34-10.32c-21.05,0-32.2,28.9-32.2,73.9c0,26.42,4.95,62.76,39.22,62.76c16.1,0,33.03-10.74,41.7-28.08
		l8.26,9.08c-11.97,28.07-34.68,45-60.28,45c-47.48,0-74.73-45.41-74.73-88.76c0-48.72,29.73-88.77,78.03-88.77
		c26.84,0,55.74,19.4,55.74,45.83C1667.62,195.88,1655.65,204.55,1643.26,204.55z"/>
	<path class="st0" d="M1755.97,132.3c48.3,0,78.03,40.05,78.03,88.77c0,48.3-29.73,88.76-78.03,88.76s-78.03-40.46-78.03-88.76
		C1677.94,172.35,1707.66,132.3,1755.97,132.3z M1755.97,147.17c-21.06,0-32.2,28.9-32.2,73.9c0,44.59,11.15,73.9,32.2,73.9
		s32.2-29.31,32.2-73.9C1788.17,176.06,1777.03,147.17,1755.97,147.17z"/>
</g>
</svg>
